<?xml version="1.0" standalone="no"?>
<!DOCTYPE svg PUBLIC "-//W3C//DTD SVG 1.1//EN" "http://www.w3.org/Graphics/SVG/1.1/DTD/svg11.dtd" >
<svg xmlns="http://www.w3.org/2000/svg">
<metadata>
This is a custom SVG font generated by IcoMoon.
<iconset grid="20"></iconset>
</metadata>
<defs>
<font id="icomoon" horiz-adv-x="640" >
<font-face units-per-em="640" ascent="608" descent="-32" />
<missing-glyph horiz-adv-x="640" />
<glyph class="hidden" unicode="&#xf000;" d="M0,608L 640 -32L0 -32 z" horiz-adv-x="0" />
<glyph unicode="&#xe000;" d="M 400.34-32.933c-0.168,0-0.335,0.005-0.504,0.015c-3.673,0.22-6.766,2.816-7.622,6.394l-74.476,311.457
			L 9.033,362.126c-3.558,0.889-6.117,3.994-6.314,7.656c-0.196,3.661, 2.019,7.021, 5.461,8.285L 627.686,605.527
			c 3.055,1.123, 6.49,0.365, 8.79-1.943c 2.301-2.306, 3.050-5.74, 1.92-8.796L 408.169-27.48
			C 406.951-30.772, 403.815-32.933, 400.34-32.933z M 39.419,371.744l 287.289-71.836c 3.022-0.755, 5.373-3.13, 6.098-6.16
			l 69.251-289.613l 214.395,579.475L 39.419,371.744z M 374.929,333.074c-0.736,0-1.478,0.098-2.206,0.296
			c-0.33,0.091-0.651,0.2-0.963,0.329l-157.565,39.404c-3.556,0.89-6.117,3.995-6.313,7.656c-0.196,3.661, 2.019,7.021, 5.461,8.285
			L 523.669,502.975c 3.67,1.348, 7.785-0.033, 9.901-3.319c 2.115-3.286, 1.667-7.603-1.076-10.385L 380.875,335.56
			C 379.285,333.947, 377.134,333.074, 374.929,333.074z M 244.584,382.72l 127.818-31.965l 121.999,123.681L 244.584,382.72z"  />
<glyph unicode="&#xe001;" d="M 321.276-32.061c-1.623,0-3.245,0.45-4.673,1.351c-22.434,14.168-43.039,26.67-62.966,38.761
			c-55.585,33.725-99.49,60.365-129.623,91.638c-32.714,33.949-47.302,71.519-47.302,121.817L 76.713,511.591 c0,4.833, 3.917,8.75, 8.75,8.75
			c 90.985,0, 145.808,12.101, 230.145,83.816c 3.268,2.777, 8.070,2.777, 11.336,0c 84.339-71.715, 139.159-83.816, 230.14-83.816
			c 4.833,0, 8.75-3.917, 8.75-8.75l0-290.085 c0-50.297-14.589-87.869-47.301-121.817c-30.133-31.271-74.036-57.91-129.619-91.636
			c-19.926-12.091-40.532-24.594-62.966-38.763C 324.521-31.61, 322.899-32.061, 321.276-32.061z M 94.214,502.883l0-281.376 
			c0-45.416, 13.078-79.242, 42.404-109.675c 28.555-29.633, 71.601-55.751, 126.1-88.819c 18.605-11.289, 37.799-22.935, 58.56-35.981
			c 20.761,13.048, 39.955,24.694, 58.561,35.983c 54.496,33.068, 97.54,59.186, 126.095,88.819
			c 29.325,30.434, 42.402,64.257, 42.402,109.674L 548.336,502.883 c-86.589,0.833-144.866,14.836-227.057,83.176
			C 239.085,517.719, 180.805,503.715, 94.214,502.883z M 290.106,178.464C 290.106,178.464, 290.106,178.464, 290.106,178.464
			c-2.321,0-4.547,0.921-6.188,2.564l-99.004,99.025c-3.416,3.416-3.416,8.956,0,12.372l 42.153,42.162
			c 1.64,1.641, 3.866,2.564, 6.188,2.564l0,0 c 2.321,0, 4.547-0.922, 6.189-2.565l 50.654-50.682l 125.059,125.054
			c 3.415,3.416, 8.955,3.417, 12.372,0l 42.161-42.153c 1.64-1.64, 2.564-3.866, 2.564-6.188s-0.921-4.546-2.563-6.188l-173.4-173.404
			C 294.654,179.385, 292.428,178.464, 290.106,178.464z M 203.476,286.239l 86.631-86.649l 161.023,161.029l-29.785,29.779
			L 296.284,265.34c-1.641-1.64-3.866-2.563-6.188-2.563c0,0,0,0-0.001,0c-2.321,0-4.547,0.922-6.188,2.565l-50.652,50.681
			L 203.476,286.239z"  />
<glyph unicode="&#xe002;" d="M 172.8,160L 467.2,160L 319.968,416 z"  />
<glyph unicode="&#xe003;" d="M 353.376-31.921L 353.376-31.921c-2.351,0-4.604,0.934-6.264,2.595L 4.955,313.038
			c-1.66,1.66-2.591,3.911-2.591,6.259L 2.364,596.745 c0,4.885, 3.956,8.848, 8.841,8.854l 277.647,0.399c 0.004,0, 0.009,0, 0.014,0
			c 2.347,0, 4.6-0.932, 6.26-2.594l 342.359-342.364c 3.458-3.459, 3.458-9.064,0-12.523L 359.637-29.327
			C 357.976-30.987, 355.724-31.921, 353.376-31.921z M 20.071,322.962l 333.306-333.505l 265.324,265.322L 285.202,588.285L 20.071,587.902
			L 20.071,322.962 z M 149.744,394.648c-17.837,0-34.608,6.945-47.22,19.555c-12.617,12.616-19.565,29.39-19.565,47.227
			c0,17.839, 6.947,34.61, 19.564,47.226c 12.613,12.616, 29.383,19.564, 47.221,19.564c 17.837,0, 34.61-6.947, 47.225-19.564
			c 26.041-26.040, 26.041-68.411,0-94.453C 184.351,401.593, 167.58,394.648, 149.744,394.648z M 149.744,510.513
			c-13.108,0-25.43-5.105-34.699-14.376c-9.273-9.273-14.379-21.597-14.379-34.706c0-13.108, 5.106-25.434, 14.378-34.705
			c 9.269-9.266, 21.591-14.369, 34.7-14.369c 13.108,0, 25.434,5.104, 34.705,14.37c 19.134,19.134, 19.134,50.271-0.001,69.407
			C 175.176,505.406, 162.851,510.513, 149.744,510.513z"  />
<glyph unicode="&#xe004;" d="M 631.263,60.901L 471.535,60.901 c-4.79,0-8.674,3.882-8.674,8.674c0,85.985-20.79,105.154-42.801,125.446
			c-21.675,19.984-44.089,40.65-44.089,118.094c0,28.554, 9.131,52.505, 26.409,69.264c 16.349,15.859, 38.646,24.241, 64.485,24.241
			c 33.6,0, 61.711-14.697, 77.126-40.324c 22.727-37.782, 16.223-94.45-18.316-159.565c-4.546-8.576-5.625-15.224-3.296-20.321
			c 6.17-13.509, 36.35-20.463, 65.537-27.188l 1.806-0.416c 50.641-11.679, 50.477-40.446, 50.249-80.262
			c-0.018-2.895-0.034-5.885-0.034-8.969C 639.936,64.785, 636.054,60.901, 631.263,60.901z M 480.132,78.25l 142.486,0 
			c 0.001,0.13, 0.001,0.263, 0.003,0.393c 0.221,38.686, 0.313,54.7-36.797,63.258l-1.802,0.416
			c-34.817,8.023-67.703,15.599-77.425,36.886c-4.654,10.188-3.391,22.184, 3.751,35.656c 42.604,80.318, 30.051,123.751, 18.776,142.494
			c-12.38,20.583-34.491,31.917-62.26,31.917c-21.237,0-39.358-6.689-52.405-19.344c-13.829-13.415-21.14-33.061-21.14-56.811
			c0-69.844, 17.84-86.291, 38.5-105.339C 453.783,187.526, 478.586,164.664, 480.132,78.25z M 426.51,60.901L 12.926,60.901 
			c-4.791,0-8.674,3.882-8.674,8.674c0,3.881-0.021,7.644-0.043,11.289c-0.28,49.045-0.483,84.484, 61.456,98.775l 3.596,0.829
			c 36.766,8.456, 74.784,17.201, 82.909,35.224c 3.19,7.075, 1.744,16.030-4.421,27.38c-43.529,80.16-51.97,150.414-23.77,197.817
			c 19.055,32.030, 53.949,50.4, 95.736,50.4c 41.456,0, 76.115-18.091, 95.091-49.635c 28.17-46.825, 19.973-117.323-23.083-198.508
			c-6.074-11.447-7.452-20.457-4.218-27.544c 8.216-17.995, 46.735-26.865, 83.987-35.444l 2.248-0.519
			c 61.962-14.295, 61.762-49.742, 61.485-98.805c-0.021-3.635-0.043-7.389-0.043-11.26C 435.184,64.785, 431.301,60.901, 426.51,60.901
			z M 21.574,78.25l 396.29,0 c 0.005,0.902, 0.010,1.796, 0.014,2.683c 0.284,49.953, 0.401,70.629-48.032,81.801l-2.244,0.516
			c-43.252,9.961-84.106,19.369-95.875,45.145c-5.547,12.152-3.976,26.579, 4.673,42.88c 54.091,101.999, 37.969,157.456, 23.543,181.435
			c-15.994,26.587-44.485,41.229-80.225,41.229c-36.040,0-64.744-14.889-80.825-41.921c-24.949-41.936-16.387-106.099, 24.104-180.667
			c 8.805-16.211, 10.485-30.608, 4.991-42.791c-11.664-25.869-52.064-35.161-94.838-45l-3.586-0.825
			c-48.409-11.171-48.29-31.839-48.005-81.771C 21.563,80.066, 21.569,79.163, 21.574,78.25z"  />
<glyph unicode="&#xe005;" d="M 107.979-26.841c-1.412,0-2.829,0.341-4.121,1.031c-2.849,1.521-4.629,4.489-4.629,7.719l0,123.785 L 11.189,105.694 
			c-4.833,0-8.75,3.917-8.75,8.75L 2.439,555.1 c0,4.833, 3.917,8.75, 8.75,8.75L 629.375,563.85 c 4.833,0, 8.75-3.917, 8.75-8.75l0-440.656 c0-4.833-3.917-8.75-8.75-8.75L 308.652,105.694 L 112.846-25.362
			C 111.38-26.345, 109.682-26.841, 107.979-26.841z M 19.939,123.194l 88.041,0 c 4.833,0, 8.75-3.917, 8.75-8.75l0-116.15 l 184.399,123.421
			c 1.44,0.964, 3.134,1.479, 4.867,1.479L 620.625,123.194 L 620.625,546.35 L 19.939,546.35 L 19.939,123.194 z M 320.294,218.391L 118.994,218.391 c-4.833,0-8.75,3.917-8.75,8.75l0,45.016 
			c0,4.833, 3.917,8.75, 8.75,8.75l 201.301,0 c 4.833,0, 8.75-3.917, 8.75-8.75l0-45.016 C 329.044,222.309, 325.127,218.391, 320.294,218.391z M 127.744,235.891
			l 183.801,0 l0,27.516 L 127.744,263.407 L 127.744,235.891 z M 524.107,308.414L 118.994,308.414 c-4.833,0-8.75,3.917-8.75,8.75l0,45.026 c0,4.833, 3.917,8.75, 8.75,8.75l 405.114,0 
			c 4.833,0, 8.75-3.917, 8.75-8.75l0-45.026 C 532.857,312.33, 528.94,308.414, 524.107,308.414z M 127.744,325.914l 387.614,0 l0,27.526 L 127.744,353.44 L 127.744,325.914 
			z M 524.107,398.445L 118.994,398.445 c-4.833,0-8.75,3.917-8.75,8.75L 110.244,452.213 c0,4.833, 3.917,8.75, 8.75,8.75l 405.114,0 c 4.833,0, 8.75-3.917, 8.75-8.75l0-45.016 
			C 532.857,402.363, 528.94,398.445, 524.107,398.445z M 127.744,415.945l 387.614,0 L 515.357,443.463 L 127.744,443.463 L 127.744,415.945 z"  />
<glyph unicode="&#xe006;" d="M 374.769-31L 291.175-31 c-4.893,0-8.857,3.966-8.857,8.857L 282.317,143.944 c0,4.891, 3.965,8.857, 8.857,8.857l 83.594,0 
			c 4.891,0, 8.857-3.966, 8.857-8.857l0-166.086 C 383.626-27.034, 379.661-31, 374.769-31z M 300.033-13.285l 65.88,0 L 365.913,135.086 l-65.88,0 
			L 300.033-13.285 z M 501,174.090L 97.948,174.090 c-4.893,0-8.857,3.966-8.857,8.857L 89.090,345.796 c0,4.893, 3.965,8.857, 8.857,8.857L 501,354.654 
			c 2.283,0, 4.476-0.881, 6.124-2.459l 85.064-81.424c 1.745-1.671, 2.734-3.984, 2.734-6.399s-0.988-4.728-2.734-6.399l-85.064-81.425
			C 505.476,174.971, 503.282,174.090, 501,174.090z M 106.805,191.805l 390.639,0 l 75.81,72.567l-75.81,72.567L 106.805,336.94 L 106.805,191.805 z
			 M 546.185,377.874L 143.144,377.874 c-2.299,0-4.506,0.894-6.159,2.491l-85.064,82.29c-1.736,1.68-2.711,3.996-2.699,6.414
			c 0.013,2.416, 1.013,4.723, 2.766,6.384l 85.064,80.549c 1.645,1.558, 3.825,2.426, 6.090,2.426l 139.174,0 L 282.316,597.089 
			c0,4.893, 3.965,8.857, 8.857,8.857l 83.594,0 c 4.891,0, 8.857-3.965, 8.857-8.857l0-38.661 l 162.559,0 c 4.891,0, 8.857-3.965, 8.857-8.857
			l0-162.839 C 555.043,381.839, 551.076,377.874, 546.185,377.874z M 146.726,395.589l 390.601,0 L 537.327,540.713 L 374.769,540.713 
			c-4.891,0-8.857,3.965-8.857,8.857L 365.911,588.231 l-65.88,0 l0-38.661 c0-4.893-3.965-8.857-8.857-8.857L 146.671,540.713 l-75.782-71.76
			L 146.726,395.589z"  />
<glyph unicode="&#xe007;" d="M 321.406-27c-16.21,0-31.448,6.309-42.906,17.764c-11.463,11.459-17.771,26.698-17.766,42.91
			c0,13.165, 4.169,25.718, 12.055,36.299c 12.311,16.431, 18.811,35.921, 18.811,56.383c0,15.27-9.114,28.902-23.216,34.73
			c-0.043,0.019-0.085,0.036-0.128,0.055c-0.080,0.034-0.169,0.074-0.26,0.116c-4.535,1.849-9.314,2.788-14.204,2.788
			c-10.053,0-19.503-3.911-26.608-11.013c-14.256-14.256-23.69-33.134-26.56-53.151c-1.886-13.065-7.822-24.893-17.169-34.21
			c-11.44-11.453-26.674-17.766-42.881-17.766c-16.206,0-31.444,6.313-42.907,17.775c-23.64,23.654-23.64,62.135-0.001,85.784
			c 9.324,9.338, 21.155,15.275, 34.21,17.169c 20.331,2.906, 38.71,12.085, 53.169,26.544c 10.802,10.81, 13.993,26.901, 8.126,40.989
			c-0.071,0.17-0.136,0.341-0.196,0.515c-5.905,13.94-19.46,22.931-34.621,22.931c-20.137,0-40.157-6.677-56.373-18.801
			c-10.541-7.897-23.099-12.075-36.311-12.075C 32.216,228.735, 5,255.951, 5,289.406s 27.216,60.671, 60.671,60.671
			c 13.219,0, 25.776-4.179, 36.313-12.084c 16.449-12.29, 35.946-18.791, 56.371-18.791c 15.176,0, 28.745,9.010, 34.642,22.979
			c 0.061,0.166, 0.121,0.316, 0.184,0.464c 5.856,14.082, 2.662,30.183-8.146,40.991c-14.242,14.242-33.116,23.669-53.145,26.543
			c-13.068,1.896-24.898,7.832-34.225,17.17c-11.459,11.454-17.77,26.688-17.77,42.89s 6.313,31.436, 17.775,42.894
			c 11.461,11.461, 26.7,17.775, 42.906,17.775c 16.209,0, 31.441-6.314, 42.894-17.78c 9.325-9.274, 15.264-21.099, 17.154-34.176
			c 2.901-20.306, 12.088-38.697, 26.568-53.2c 7.096-7.080, 16.546-10.985, 26.596-10.985c 4.899,0, 9.685,0.94, 14.226,2.795
			c 0.122,0.056, 0.245,0.111, 0.37,0.163c 14.104,5.83, 23.216,19.462, 23.216,34.733c0,20.159-6.676,40.178-18.8,56.367
			c-7.899,10.531-12.076,23.093-12.076,36.316c0,33.455, 27.221,60.671, 60.681,60.671c 33.455,0, 60.671-27.216, 60.671-60.671
			c0-13.196-4.171-25.753-12.060-36.31c-12.304-16.449-18.805-35.941-18.805-56.374c0-15.27, 9.113-28.902, 23.216-34.733
			c 0.12-0.050, 0.237-0.103, 0.355-0.156c 4.545-1.863, 9.334-2.806, 14.24-2.806c 10.056,0, 19.504,3.911, 26.6,11.013
			c 14.249,14.249, 23.683,33.131, 26.566,53.171c 1.887,13.074, 7.82,24.898, 17.156,34.197c 11.444,11.45, 26.683,17.764, 42.89,17.764
			c 16.207,0, 31.449-6.313, 42.916-17.774c 11.459-11.459, 17.769-26.691, 17.769-42.894s-6.31-31.436-17.766-42.894
			c-9.331-9.332-21.165-15.269-34.219-17.165c-20.332-2.908-38.711-12.085-53.167-26.545c-11.159-11.166-14.063-27.84-7.395-42.476
			c 6.070-13.339, 19.45-21.956, 34.084-21.956c 20.13,0, 40.151,6.677, 56.375,18.801c 10.539,7.896, 23.098,12.074, 36.31,12.074
			c 33.455,0, 60.671-27.216, 60.671-60.671s-27.216-60.671-60.671-60.671c-13.211,0-25.771,4.178-36.319,12.081
			c-16.444,12.294-35.943,18.795-56.377,18.795c-15.125,0-28.657-8.965-34.585-22.871c-0.046-0.13-0.095-0.258-0.147-0.384
			c-5.891-14.23-2.659-30.456, 8.236-41.34c 14.198-14.199, 32.971-23.564, 52.864-26.369c 13.119-1.887, 24.986-7.827, 34.343-17.183
			c 11.457-11.457, 17.766-26.691, 17.765-42.892c-0.001-16.205-6.315-31.438-17.779-42.894c-11.461-11.461-26.699-17.774-42.906-17.774
			c-16.209,0-31.444,6.314-42.903,17.777c-9.344,9.33-15.274,21.154-17.143,34.188c-2.924,20.318-12.118,38.708-26.589,53.176
			c-7.065,7.077-16.464,10.973-26.469,10.973c-4.551,0-9.023-0.82-13.293-2.439c-14.964-5.661-24.629-19.601-24.629-35.516
			c0-20.032, 6.652-39.915, 18.734-55.985c 7.939-10.571, 12.131-23.159, 12.131-36.406C 382.077,0.216, 354.861-27, 321.406-27z
			 M 275.269,177.176c 20.56-8.59, 33.831-28.515, 33.831-50.82c0-24.275-7.709-47.394-22.293-66.859
			c-5.604-7.519-8.572-16.455-8.572-25.825c-0.004-11.538, 4.485-22.379, 12.639-30.531S 309.87-9.5, 321.406-9.5
			c 23.805,0, 43.171,19.366, 43.171,43.171c0,9.428-2.981,18.383-8.621,25.895c-14.344,19.079-22.244,42.695-22.244,66.496
			c0,23.259, 14.104,43.624, 35.931,51.881c 6.251,2.37, 12.811,3.574, 19.49,3.574c 14.685,0, 28.481-5.719, 38.849-16.104
			c 17.159-17.159, 28.063-38.965, 31.53-63.056c 1.328-9.259, 5.544-17.66, 12.192-24.299c 8.157-8.161, 18.999-12.654, 30.531-12.654
			c 11.534,0, 22.376,4.492, 30.534,12.65c 8.157,8.152, 12.65,18.99, 12.651,30.519c 0.001,11.527-4.487,22.366-12.639,30.516
			c-6.661,6.661-15.111,10.891-24.435,12.232c-23.606,3.33-45.906,14.452-62.769,31.317c-15.811,15.796-20.58,39.297-12.206,59.99
			c 0.054,0.154, 0.111,0.306, 0.174,0.455c 8.568,20.67, 28.546,34.026, 50.901,34.026c 24.242,0, 47.362-7.706, 66.862-22.285
			c 7.504-5.623, 16.433-8.591, 25.832-8.591c 23.805,0, 43.171,19.366, 43.171,43.171s-19.366,43.171-43.171,43.171
			c-9.4,0-18.33-2.969-25.825-8.585c-19.238-14.376-42.979-22.29-66.859-22.29c-21.476,0-41.106,12.641-50.010,32.205
			c-9.721,21.341-5.426,45.719, 10.945,62.1c 17.158,17.16, 38.958,28.049, 63.047,31.494c 9.273,1.346, 17.696,5.572, 24.34,12.217
			c 8.152,8.152, 12.641,18.991, 12.641,30.52s-4.489,22.366-12.64,30.519c-8.161,8.157-19.010,12.65-30.545,12.65
			c-11.534,0-22.374-4.491-30.526-12.649c-6.644-6.619-10.859-15.020-12.199-24.309c-3.417-23.752-14.61-46.145-31.511-63.047
			c-10.401-10.408-24.245-16.14-38.977-16.14c-7.275,0-14.376,1.415-21.105,4.208c-0.040,0.018-0.080,0.034-0.121,0.051
			c-0.112,0.048-0.222,0.095-0.33,0.145c-20.516,8.609-33.756,28.511-33.756,50.79c0,24.241, 7.708,47.358, 22.289,66.852
			c 5.61,7.506, 8.576,16.44, 8.576,25.831c0,23.805-19.366,43.171-43.171,43.171c-23.81,0-43.181-19.366-43.181-43.171
			c0-9.409, 2.968-18.337, 8.58-25.821c 14.379-19.204, 22.295-42.946, 22.295-66.862c0-22.286-13.249-42.195-33.776-50.799
			c-0.104-0.049-0.206-0.094-0.309-0.138c-0.041-0.019-0.083-0.036-0.125-0.053c-6.729-2.788-13.829-4.201-21.103-4.201
			c-14.717,0-28.556,5.72-38.969,16.107c-17.186,17.211-28.081,39.023-31.519,63.089c-1.341,9.279-5.557,17.679-12.192,24.277
			c-8.168,8.176-19.004,12.668-30.534,12.668c-11.531,0-22.375-4.492-30.532-12.65c-8.156-8.152-12.648-18.99-12.648-30.519
			s 4.491-22.366, 12.646-30.519c 6.643-6.65, 15.061-10.875, 24.349-12.223c 23.735-3.406, 46.12-14.589, 63.020-31.489
			c 15.788-15.789, 20.488-39.282, 12.003-59.91c-0.046-0.125-0.094-0.25-0.145-0.372c-8.561-20.67-28.545-34.025-50.912-34.025
			c-24.23,0-47.349,7.705-66.86,22.282c-7.498,5.625-16.422,8.592-25.824,8.592C 41.866,332.577, 22.5,313.211, 22.5,289.406
			s 19.366-43.171, 43.171-43.171c 9.399,0, 18.329,2.969, 25.825,8.585c 19.226,14.376, 42.969,22.291, 66.859,22.291
			c 22.372,0, 42.358-13.357, 50.912-34.030c 0.071-0.173, 0.138-0.346, 0.198-0.522c 8.414-20.576, 3.705-43.993-12.043-59.755
			c-17.16-17.16-38.961-28.049-63.051-31.494c-9.27-1.345-17.688-5.57-24.325-12.215c-16.823-16.831-16.823-44.212-0.003-61.043
			c 8.156-8.155, 19-12.648, 30.531-12.648c 11.53,0, 22.366,4.491, 30.514,12.646c 6.656,6.636, 10.875,15.041, 12.215,24.322
			c 3.404,23.73, 14.594,46.12, 31.51,63.036c 10.412,10.405, 24.255,16.135, 38.98,16.135c 7.271,0, 14.37-1.414, 21.098-4.201
			C 275.019,177.291, 275.145,177.235, 275.269,177.176z"  />
<glyph unicode="&#xe008;" d="M 603.121-23.721L 111.664-23.721 c-45.396,0-82.329,36.932-82.329,82.329L 29.335,517.715 
			c0,45.39, 36.932,82.317, 82.329,82.317l 491.459,0 c 4.833,0, 8.75-3.917, 8.75-8.75l0-55.911 c0-4.833-3.917-8.75-8.75-8.75L 126.369,526.621 
			c-12.774,0-17.306-8.975-17.306-16.661c0-7.686, 4.532-16.661, 17.306-16.661l 476.752,0 c 4.833,0, 8.75-3.917, 8.75-8.75l0-499.521 
			C 611.871-19.804, 607.954-23.721, 603.121-23.721z M 111.664,582.534c-35.746,0-64.829-29.078-64.829-64.817l0-459.108 
			c0-35.748, 29.082-64.829, 64.829-64.829l 482.709,0 L 594.372,475.8 L 126.369,475.8 c-13.362,0-21.52,5.871-26.009,10.796
			c-5.673,6.224-8.797,14.523-8.797,23.365c0,8.842, 3.125,17.14, 8.797,23.364c 4.489,4.925, 12.646,10.796, 26.009,10.796l 468.002,0 L 594.371,582.534 
			L 111.664,582.534 z"  />
<glyph unicode="&#xe009;" d="M 381.067-25.369L 289.962-25.369 c-4.833,0-8.75,3.917-8.75,8.75L 281.212,280.035 c-60.399,13.2-105.22,47.387-129.895,99.21
			c-35.813,75.216-21.036,166.844, 7.85,220.145c 1.34,2.474, 3.787,4.151, 6.577,4.51c 2.792,0.355, 5.583-0.647, 7.504-2.7l 79.188-84.612
			l 61.453,83.808c 1.619,2.208, 4.178,3.53, 6.915,3.575c 2.737,0.024, 5.337-1.195, 7.026-3.349l 66.022-84.168l 77.013,84.669
			c 1.907,2.098, 4.718,3.14, 7.526,2.799c 2.814-0.341, 5.288-2.025, 6.64-4.518c 16.199-29.89, 26.386-67.221, 28.685-105.119
			c 2.532-41.727-4.516-81.4-20.385-114.731c-24.749-51.981-69.726-86.278-130.344-99.52l0-143.971 l 213.205,212.344
			c 2.504,2.494, 6.264,3.237, 9.531,1.88c 3.265-1.356, 5.393-4.545, 5.393-8.080l0-157.526 
			C 591.119,68.86, 496.89-25.369, 381.067-25.369z M 298.712-7.869l 82.356,0 c 106.172,0, 192.55,86.379, 192.55,192.55l0,136.463 
			L 360.412,108.8c-2.504-2.494-6.261-3.239-9.531-1.881c-3.265,1.358-5.393,4.545-5.393,8.081L 345.489,287.187 
			c0,4.21, 2.998,7.824, 7.136,8.6c 58.509,10.979, 101.7,42.546, 124.907,91.291c 30.63,64.338, 20.793,142.238-2.323,192.813
			l-75.377-82.87c-1.734-1.906-4.215-2.945-6.793-2.857c-2.575,0.094-4.976,1.318-6.566,3.344l-65.293,83.238l-60.869-83.011
			c-1.539-2.1-3.934-3.405-6.534-3.56c-2.6-0.161-5.133,0.855-6.911,2.755l-77.797,83.129
			c-11.589-25.265-18.884-55.425-20.756-86.291c-2.377-39.165, 4.126-76.165, 18.806-106.998c 10.954-23.006, 26.31-42.255, 45.643-57.211
			c 21.495-16.63, 48.012-27.991, 78.815-33.77c 4.139-0.776, 7.136-4.39, 7.136-8.6L 298.714-7.869 z M 228.992-22.44
			c-0.491,0-0.984,0.041-1.475,0.126c-48.266,8.255-92.429,33.432-124.351,70.896c-32.296,37.901-50.084,86.236-50.084,136.099
			L 53.082,342.208 c0,3.536, 2.127,6.724, 5.393,8.080s 7.025,0.615, 9.531-1.88l 167.161-166.483c 1.649-1.641, 2.576-3.874, 2.576-6.2l0-189.415 
			c0-2.577-1.137-5.026-3.109-6.689C 233.044-21.719, 231.041-22.44, 228.992-22.44z M 70.581,321.144l0-136.463 
			c0-45.706, 16.302-90.010, 45.904-124.749c 26.999-31.685, 63.534-53.781, 103.756-62.957L 220.241,172.090 L 70.581,321.144z"  />
<glyph unicode="&#xe00a;" d="M 628.125,44.875L 12.765,44.875 c-4.833,0-8.75,3.917-8.75,8.75L 4.015,518.144 c0,4.833, 3.917,8.75, 8.75,8.75L 628.125,526.894 c 4.833,0, 8.75-3.917, 8.75-8.75L 636.875,53.625 
			C 636.875,48.793, 632.957,44.875, 628.125,44.875z M 21.515,62.375L 619.375,62.375 L 619.375,509.394 L 21.515,509.394 L 21.515,62.375 z M 568.386,104.628L 72.491,104.628 
			c-4.833,0-8.75,3.917-8.75,8.75L 63.741,458.395 c0,4.833, 3.917,8.75, 8.75,8.75l 495.895,0 c 4.833,0, 8.75-3.917, 8.75-8.75l0-345.018 
			C 577.136,108.545, 573.219,104.628, 568.386,104.628z M 81.241,122.128l 478.395,0 L 559.636,449.645 L 81.241,449.645 L 81.241,122.128 z M 512.45,158.689L 150.147,158.689 
			c-3.438,0-6.558,2.013-7.973,5.145c-1.416,3.134-0.866,6.804, 1.405,9.385l 115.898,131.699c 1.613,1.831, 3.915,2.908, 6.354,2.968
			c 2.46,0.064, 4.794-0.902, 6.492-2.652l 33.734-34.749l 69.506,98.749c 1.64,2.33, 4.311,3.714, 7.156,3.714
			c 0.044,0, 0.088,0, 0.133-0.001c 2.894-0.044, 5.579-1.516, 7.171-3.933l 129.73-196.756c 1.772-2.688, 1.925-6.131, 0.399-8.965
			C 518.627,160.456, 515.669,158.689, 512.45,158.689z M 169.504,176.189L 496.2,176.189 l-113.718,172.47l-68.194-96.884
			c-1.5-2.13-3.871-3.481-6.468-3.686c-2.59-0.209-5.15,0.757-6.965,2.629L 266.36,286.25L 169.504,176.189z M 197.030,311.319
			c-29.974,0-54.36,24.375-54.36,54.335c0,29.969, 24.386,54.35, 54.36,54.35s 54.36-24.381, 54.36-54.35
			C 251.39,335.694, 227.005,311.319, 197.030,311.319z M 197.030,402.505c-20.325,0-36.86-16.531-36.86-36.85
			c0-20.311, 16.536-36.835, 36.86-36.835s 36.86,16.524, 36.86,36.835C 233.89,385.974, 217.355,402.505, 197.030,402.505z"  />
<glyph unicode="&#xe00b;" d="M 628.294,8.625L 14.585,8.625 c-4.844,0-8.77,3.926-8.77,8.771l0,67.032 c0,4.844, 3.926,8.77, 8.77,8.77l 613.707,0 
			c 4.845,0, 8.771-3.926, 8.771-8.77l0-67.032 C 637.064,12.551, 633.139,8.625, 628.294,8.625z M 23.356,26.165l 596.169,0 l0,49.492 L 23.356,75.658 
			L 23.356,26.165 z M 581.418,116.374l-100.094,0 c-4.844,0-8.77,3.926-8.77,8.77l0,105.13 c0,4.844, 3.926,8.77, 8.77,8.77l 100.094,0 
			c 4.844,0, 8.771-3.926, 8.771-8.77l0-105.13 C 590.188,120.3, 586.261,116.374, 581.418,116.374z M 490.094,133.914l 82.554,0 l0,87.589 
			l-82.554,0 L 490.094,133.914 z M 441.386,116.374l-100.079,0 c-4.844,0-8.771,3.926-8.771,8.77L 332.536,416.851 c0,4.844, 3.927,8.77, 8.771,8.77l 100.079,0 
			c 4.844,0, 8.77-3.926, 8.77-8.77l0-291.708 C 450.156,120.3, 446.23,116.374, 441.386,116.374z M 350.077,133.914l 82.539,0 L 432.616,408.081 
			l-82.539,0 L 350.077,133.914 z M 301.358,116.374l-100.081,0 c-4.844,0-8.77,3.926-8.77,8.77L 192.506,544.211 c0,4.844, 3.926,8.77, 8.77,8.77l 100.081,0 
			c 4.844,0, 8.77-3.926, 8.77-8.77l0-419.067 C 310.129,120.3, 306.201,116.374, 301.358,116.374z M 210.046,133.914l 82.541,0 L 292.587,535.441 
			l-82.541,0 L 210.046,133.914 z M 161.354,116.374L 61.26,116.374 c-4.844,0-8.77,3.926-8.77,8.77l0,207.050 c0,4.844, 3.926,8.77, 8.77,8.77l 100.094,0 
			c 4.844,0, 8.77-3.926, 8.77-8.77l0-207.050 C 170.124,120.3, 166.197,116.374, 161.354,116.374z M 70.030,133.914l 82.553,0 L 152.583,323.424 L 70.030,323.424 
			L 70.030,133.914 z"  />
<glyph unicode="&#xe00d;" d="M 627.493-18.868L 15.971-18.868 L 15.971,592.684 l 611.521,0 L 627.492-18.868 z M 641.875,607.066l-14.383,0 L 15.971,607.066 L 1.589,607.066 l0-14.383 l0-611.551 
			l0-14.384 l 14.383,0 l 611.521,0 L 641.875-33.251 l0,14.384 L 641.875,592.684 L 641.875,607.066 zM 395.294,358l 40.457,0 l0,58.442 l0,5.689 l 5.71,0 l 36.883,0 l 5.696,0 l0-5.689 l0-150.387 l0-4.396 l-4.277-1.096
			c-10.436-2.737-32.157-8.37-63.864-8.37c-26.21,0-49.524,4.775-64.483,8.765l-4.221,1.137l0,4.353 L 347.195,464.632 l-41.236,0 l0-51.434 l0-14.313 
			l-9.832,10.4c-15.12,15.97-32.999,28.899-53.14,38.414c-23.821,11.188-49.159,16.931-75.185,17.044l-11.587,0.056l-14.115,0.056
			c-8.238,0.035-16.447,0.077-24.573,0.119l0-229.245 l 40.774,0 L 158.3,417.665 l0,5.716 l 5.724-0.035c 1.573,0, 3.048,0, 3.616-0.014
			c 37.944-0.147, 70.845-14.031, 97.665-41.244c 26.797-27.214, 40.302-60.114, 40.127-97.83l0-46.644 l0-3.091 
			c 6.742-2.822, 57.559-23.133, 109.827-23.133c 51.42,0, 103.719,19.466, 110.699,22.163L 525.959,463.832 L 395.294,463.832 L 395.294,358 zM 111.958,99.155L 111.958,155.238L 119.177,155.238L 153.153,110.448L 153.153,155.238L 159.95,155.238L 159.95,99.155L 152.704,99.155L 118.531,143.945L 118.531,99.155 		zM 203.85,154.956L 203.85,148.946L 174.34,148.946L 174.34,130.321L 202.389,130.321L 202.354,124.352L 174.34,124.352L 174.34,104.788L 204.215,104.788L 204.186,98.93L 167.339,98.93L 167.339,154.956 		zM 251.132,154.956L 251.091,148.917L 233.549,148.917L 233.549,98.846L 226.301,98.846L 226.301,148.917L 208.716,148.917L 208.73,154.956 		zM 317.189,100.63c-4.536-1.699-9.481-2.556-14.699-2.515c-20.246,0.099-30.324,9.832-30.211,29.244
			c 0.063,18.358, 9.881,27.501, 29.404,27.389c 5.619-0.015, 10.815-0.815, 15.619-2.389l-0.027-6.277
			c-4.804,1.869-9.755,2.795-14.832,2.824c-15.239,0.071-22.88-7.12-22.936-21.587c-0.098-15.494, 7.374-23.259, 22.381-23.345
			c 2.38,0, 5.134,0.295, 8.055,0.912l0,18.962 l 7.248,0 L 317.189,100.63 zM 326.669,98.41l0,55.718 l 23.821,0 c 10.619-0.027, 15.928-4.508, 15.879-13.441
			c-0.035-7.275-5.26-12.613-15.652-16.067l 19.045-26.405l-9.503,0.027l-17.663,25.211l0,4.706 c 10.675,1.658, 16.040,5.716, 16.075,12.248
			c 0.034,5.155-2.936,7.739-8.856,7.752L 333.875,148.159 l0-49.79 L 326.669,98.41zM 372.246,126.051c 0.099,18.946, 9.326,28.344, 28.049,28.259c 18.393-0.071, 27.711-9.579, 27.613-28.499
			c-0.098-18.849-9.22-28.231-27.613-28.133C 382.409,97.765, 372.991,107.189, 372.246,126.051 M 400.295,103.538
			c 13.329-0.056, 19.929,7.444, 19.992,22.527c 0.064,14.874-6.664,22.332-19.992,22.374c-13.639,0.071-20.352-7.317-20.422-22.205
			C 379.803,111.177, 386.656,103.579, 400.295,103.538M 435.436,119.479L 435.436,153.763 l 7.22-0.027l0-34.297 c-0.043-10.716, 5.266-16.124, 15.926-16.152
			c 10.702-0.071, 16.224,5.268, 16.258,16.012l0,34.297 l 7.226-0.027l0-34.313 c-0.070-14.635-8.020-21.898-23.484-21.854
			C 443.077,97.484, 435.366,104.844, 435.436,119.479M 492.074,97.624l0,55.886 l 23.821,0 c 10.611-0.041, 15.908-4.649, 15.879-13.567
			c-0.043-10.099-7.473-16.277-22.325-18.61l-1.454,6.096c 10.682,1.615, 16.047,5.715, 16.082,12.219
			c 0.021,5.169-2.936,7.822-8.864,7.865l-16.186,0 l0-49.889 L 492.074,97.624 z"  />
<glyph unicode="&#xe00e;" d="M 561.44,113.024l-120.928,120.928c 18.24,29.984, 28.736,65.12, 28.736,102.784c0,109.312-94.752,204.064-204.096,204.064
		C 155.84,540.8, 67.2,452.16, 67.2,342.848c0-109.344, 94.72-204.096, 204.064-204.096c 36.352,0, 70.4,9.856, 99.68,26.976l 121.568-121.6
		c 11.936-11.904, 31.2-11.904, 43.072,0l 30.176,30.144C 577.632,86.176, 573.312,101.152, 561.44,113.024z M 128.128,342.848
		c0,75.68, 61.344,137.056, 137.024,137.056c 75.712,0, 143.168-67.456, 143.168-143.168s-61.344-137.056-137.056-137.056S 128.128,267.136, 128.128,342.848z"  />
<glyph unicode="&#xe00f;" d="M 467.2,415.968L 172.8,416L 320,160 z"  />
<glyph unicode="&#xe010;" d="M 274.016,463.488c 13.376-13.056, 144.064-150.272, 144.064-150.272C 425.248,306.24, 428.8,297.12, 428.8,288s-3.552-18.24-10.72-25.216
	c0,0-130.688-137.216-144.064-150.24c-13.376-13.056-37.408-13.952-51.712,0c-14.272,13.92-15.392,33.344,0,50.4L 342.24,288L 222.336,413.056
	c-15.392,17.088-14.272,36.512,0,50.432C 236.608,477.408, 260.672,476.544, 274.016,463.488z"  />
<glyph unicode="&#xe011;" d="M 495.456,333.984c-13.024-13.376-150.24-144.096-150.24-144.096C 338.24,182.752, 329.12,179.2, 320,179.2c-9.152,0-18.272,3.552-25.216,10.688
	c0,0-137.216,130.72-150.272,144.096c-13.024,13.376-13.92,37.408,0,51.712c 13.952,14.272, 33.376,15.392, 50.432,0L 320,265.76l 125.024,119.904
	c 17.088,15.392, 36.544,14.272, 50.432,0C 509.408,371.392, 508.544,347.328, 495.456,333.984z"  />
<glyph unicode="&#xe012;" d="M 495.456,242.016c-13.024,13.376-150.24,144.064-150.24,144.064C 338.24,393.216, 329.12,396.8, 320,396.8c-9.152,0-18.272-3.584-25.216-10.72
	c0,0-137.216-130.688-150.272-144.064c-13.024-13.376-13.92-37.44,0-51.712c 13.952-14.24, 33.376-15.392, 50.432,0L 320,310.208l 125.024-119.904
	c 17.088-15.392, 36.544-14.24, 50.432,0C 509.408,204.608, 508.544,228.672, 495.456,242.016z"  />
<glyph unicode="&#xe013;" d="M 365.984,463.488c-13.376-13.056-144.064-150.272-144.064-150.272C 214.784,306.24, 211.232,297.12, 211.232,288s 3.552-18.24, 10.688-25.216
	c0,0, 130.688-137.216, 144.064-150.24c 13.376-13.056, 37.44-13.952, 51.712,0c 14.24,13.92, 15.36,33.344-0.032,50.4L 297.76,288l 119.904,125.056
	c 15.392,17.088, 14.272,36.512, 0.032,50.432C 403.392,477.408, 379.328,476.544, 365.984,463.488z"  />
<glyph unicode="&#xe014;" d="M 447.968,435.2L 448,140.8L 192,288 z"  />
<glyph unicode="&#xe015;" d="M 192.032,435.2L 192,140.8L 448,288 z"  />
<glyph unicode="&#xe016;" d="M 396.768,178.624c 8.576-8.672, 8.576-22.688,0-31.328c-8.576-8.672-22.432-8.672-31.008,0l-122.56,125.024
	c-8.576,8.672-8.576,22.688,0,31.328l 122.56,125.056c 8.576,8.672, 22.432,8.672, 31.008,0s 8.576-22.656,0-31.328L 296.288,288L 396.768,178.624z"  />
<glyph unicode="&#xe017;" d="M 429.376,364.768c 8.672,8.576, 22.688,8.576, 31.328,0c 8.672-8.576, 8.672-22.432,0-31.008l-125.024-122.56
	c-8.672-8.576-22.688-8.576-31.328,0l-125.056,122.56c-8.64,8.576-8.64,22.432,0,31.008c 8.672,8.576, 22.656,8.576, 31.328,0L 320,264.288
	L 429.376,364.768z"  />
<glyph unicode="&#xe018;" d="M 210.592,211.232c-8.672-8.576-22.656-8.576-31.328,0c-8.64,8.576-8.672,22.432,0,31.040L 304.32,364.768
	c 8.672,8.576, 22.688,8.576, 31.328,0l 125.056-122.528c 8.672-8.608, 8.672-22.464,0-31.040s-22.656-8.576-31.328,0L 319.968,311.712L 210.592,211.232z"  />
<glyph unicode="&#xe019;" d="M 243.232,178.624c-8.576-8.672-8.576-22.688,0-31.328c 8.544-8.672, 22.432-8.672, 31.008,0l 122.56,125.024
	c 8.576,8.672, 8.576,22.688,0,31.328l-122.56,125.056c-8.576,8.672-22.432,8.672-31.008,0S 234.656,406.048, 243.2,397.408L 343.712,288L 243.232,178.624z"  />
<glyph unicode="&#xe00c;" d="M 629.375-31.222L 11.992-31.222 c-4.833,0-8.75,3.917-8.75,8.75L 3.242,594.91 c0,4.833, 3.917,8.75, 8.75,8.75L 629.375,603.66 c 4.833,0, 8.75-3.917, 8.75-8.75l0-617.383 
	C 638.125-27.305, 634.207-31.222, 629.375-31.222z M 20.742-13.722L 620.625-13.722 L 620.625,586.16 L 20.742,586.16 L 20.742-13.722 z M 366.893,167.645
	c-1.563,0-3.125,0.419-4.506,1.25c-2.631,1.584-4.244,4.429-4.244,7.5l0,52.214 c0,3.241, 1.787,6.215, 4.649,7.732l 94.26,50.004l-94.239,49.651
	c-2.874,1.514-4.67,4.494-4.67,7.741l0,52.311 c0,3.071, 1.609,5.918, 4.244,7.5s 5.903,1.667, 8.614,0.227l 170.625-90.65
	c 2.857-1.519, 4.645-4.49, 4.645-7.728l0-38.358 c0-3.237-1.787-6.209-4.645-7.73l-170.627-90.646
	C 369.712,167.982, 368.301,167.645, 366.893,167.645z M 375.641,223.344l0-32.392 l 153.127,81.347L 528.769,300.137 l-153.127,81.35l0-32.474 
	l 104.21-54.905c 2.87-1.511, 4.666-4.486, 4.671-7.729c 0.005-3.244-1.785-6.224-4.65-7.741L 375.641,223.344z M 275.983,167.645
	c-1.409,0-2.819,0.339-4.105,1.022L 101.243,259.314c-2.859,1.519-4.645,4.492-4.645,7.728L 96.598,305.4 c0,3.236, 1.786,6.209, 4.645,7.728
	l 170.634,90.646c 2.712,1.441, 5.98,1.355, 8.614-0.227c 2.631-1.583, 4.242-4.428, 4.242-7.5l0-52.311 c0-3.247-1.799-6.228-4.671-7.741
	l-94.25-49.651l 94.271-50.004c 2.861-1.518, 4.65-4.491, 4.65-7.731l0-52.214 c0-3.071-1.61-5.914-4.242-7.499
	C 279.106,168.064, 277.545,167.645, 275.983,167.645z M 114.098,272.299l 153.134-81.35l0,32.395 l-104.245,55.291
	c-2.865,1.522-4.655,4.501-4.65,7.741s 1.802,6.218, 4.671,7.73l 104.222,54.904l0,32.474 L 114.098,300.137L 114.098,272.299 z"  />
<glyph unicode="&#x20;" horiz-adv-x="320" />
</font>
</defs>
</svg>
